STARTFONT 2.1
FONT pelm.ascii.12
SIZE 22 72 72
FONTBOUNDINGBOX 12 22 0 -6
STARTPROPERTIES 4
FONT_DESCENT 6
FONT_ASCENT 16
DEFAULT_CHAR 0
COPYRIGHT "Copyright (C) 1985 Bigelow & Holmes Inc. All rights reserved."
ENDPROPERTIES
CHARS 127
STARTCHAR ch-0
ENCODING 0
SWIDTH 545 0
DWIDTH 12 0
BBX 12 22 0 -6
BITMAP
0000
0000
0000
0000
1f00
07c0
03e0
41f0
d1e0
dfe0
c3e0
03c0
0fc0
47c0
0780
0300
0f00
0f00
0000
0000
0000
0000
ENDCHAR
STARTCHAR ch-2
ENCODING 2
SWIDTH 545 0
DWIDTH 12 0
BBX 12 22 0 -6
BITMAP
0000
0000
3e00
6000
6000
7800
1e00
0600
0600
7c00
0000
0000
0c60
0c60
0c60
0fe0
0c60
0c60
0c60
0c60
0000
0000
ENDCHAR
STARTCHAR ch-3
ENCODING 3
SWIDTH 545 0
DWIDTH 12 0
BBX 12 22 0 -6
BITMAP
0000
0000
3e00
6000
6000
7800
1e00
0600
0600
7c00
0000
0000
0c60
0c60
06c0
0380
0380
06c0
0c60
0c60
0000
0000
ENDCHAR
STARTCHAR ch-4
ENCODING 4
SWIDTH 545 0
DWIDTH 12 0
BBX 12 22 0 -6
BITMAP
0000
0000
7e00
6000
6000
7c00
6000
6000
6000
7e00
0000
0000
0c60
0c60
06c0
0380
0380
06c0
0c60
0c60
0000
0000
ENDCHAR
STARTCHAR ch-5
ENCODING 5
SWIDTH 545 0
DWIDTH 12 0
BBX 12 22 0 -6
BITMAP
0000
0000
7e00
6000
6000
7c00
6000
6000
6000
7e00
0000
0000
1fe0
0300
0300
0300
0300
0300
0300
0300
0000
0000
ENDCHAR
STARTCHAR ch-6
ENCODING 6
SWIDTH 545 0
DWIDTH 12 0
BBX 12 22 0 -6
BITMAP
0000
0000
fc00
c000
c000
f800
c000
c000
c000
fc00
0000
0000
0f80
18c0
18c0
18c0
18c0
18c0
19c0
0fc0
0060
0000
ENDCHAR
STARTCHAR ch-7
ENCODING 7
SWIDTH 545 0
DWIDTH 12 0
BBX 12 22 0 -6
BITMAP
0000
0000
1c00
1400
3600
3200
3200
7f00
6300
6300
0000
0000
0c60
0cc0
0d80
0f00
0f00
0d80
0cc0
0c60
0000
0000
ENDCHAR
STARTCHAR ch-8
ENCODING 8
SWIDTH 545 0
DWIDTH 12 0
BBX 12 22 0 -6
BITMAP
0000
0000
7c00
6600
6600
7c00
6600
6600
6600
7c00
0000
0000
0600
0600
0600
0600
0600
0600
0600
07e0
0000
0000
ENDCHAR
STARTCHAR ch-9
ENCODING 9
SWIDTH 545 0
DWIDTH 12 0
BBX 12 22 0 -6
BITMAP
0000
0000
7c00
6600
6600
7c00
6600
6600
6600
7c00
0000
0000
03e0
0600
0600
0780
01e0
0060
0060
07c0
0000
0000
ENDCHAR
STARTCHAR ch-10
ENCODING 10
SWIDTH 545 0
DWIDTH 12 0
BBX 12 22 0 -6
BITMAP
0000
0000
6300
6300
6300
7f00
6300
6300
6300
6300
0000
0000
1fe0
0300
0300
0300
0300
0300
0300
0300
0000
0000
ENDCHAR
STARTCHAR ch-11
ENCODING 11
SWIDTH 545 0
DWIDTH 12 0
BBX 12 22 0 -6
BITMAP
0000
0000
6000
6000
6000
6000
6000
6000
6000
7e00
0000
0000
07e0
0600
0600
07c0
0600
0600
0600
0600
0000
0000
ENDCHAR
STARTCHAR ch-12
ENCODING 12
SWIDTH 545 0
DWIDTH 12 0
BBX 12 22 0 -6
BITMAP
0000
0000
6300
6300
6300
3600
3600
1400
1c00
0800
0000
0000
1fe0
0300
0300
0300
0300
0300
0300
0300
0000
0000
ENDCHAR
STARTCHAR ch-13
ENCODING 13
SWIDTH 545 0
DWIDTH 12 0
BBX 12 22 0 -6
BITMAP
0000
0000
7e00
6000
6000
7c00
6000
6000
6000
6000
0000
0000
07e0
0600
0600
07c0
0600
0600
0600
0600
0000
0000
ENDCHAR
STARTCHAR ch-14
ENCODING 14
SWIDTH 545 0
DWIDTH 12 0
BBX 12 22 0 -6
BITMAP
0000
0000
3e00
6600
6000
6000
6000
6000
6000
3e00
0000
0000
07c0
0660
0660
07c0
0640
0660
0660
0660
0000
0000
ENDCHAR
STARTCHAR ch-15
ENCODING 15
SWIDTH 545 0
DWIDTH 12 0
BBX 12 22 0 -6
BITMAP
0000
0000
3e00
6000
6000
7800
1e00
0600
0600
7c00
0000
0000
07c0
0c60
0c60
0c60
0c60
0c60
0c60
07c0
0000
0000
ENDCHAR
STARTCHAR ch-16
ENCODING 16
SWIDTH 545 0
DWIDTH 12 0
BBX 12 22 0 -6
BITMAP
0000
0000
3e00
6000
6000
7800
1e00
0600
0600
7c00
0000
0000
07e0
0180
0180
0180
0180
0180
0180
07e0
0000
0000
ENDCHAR
STARTCHAR ch-17
ENCODING 17
SWIDTH 545 0
DWIDTH 12 0
BBX 12 22 0 -6
BITMAP
0000
0000
7c00
6600
6600
6600
6600
6600
6600
7c00
0000
0000
0600
0600
0600
0600
0600
0600
0600
07e0
0000
0000
ENDCHAR
STARTCHAR ch-18
ENCODING 18
SWIDTH 545 0
DWIDTH 12 0
BBX 12 22 0 -6
BITMAP
0000
0000
7c00
6600
6600
6600
6600
6600
6600
7c00
0000
0000
0180
0780
0180
0180
0180
0180
0180
07e0
0000
0000
ENDCHAR
STARTCHAR ch-19
ENCODING 19
SWIDTH 545 0
DWIDTH 12 0
BBX 12 22 0 -6
BITMAP
0000
0000
7c00
6600
6600
6600
6600
6600
6600
7c00
0000
0000
07c0
0460
0060
0060
01c0
0200
07e0
07e0
0000
0000
ENDCHAR
STARTCHAR ch-20
ENCODING 20
SWIDTH 545 0
DWIDTH 12 0
BBX 12 22 0 -6
BITMAP
0000
0000
7c00
6600
6600
6600
6600
6600
6600
7c00
0000
0000
07c0
0460
0060
03c0
0060
0060
0460
07c0
0000
0000
ENDCHAR
STARTCHAR ch-21
ENCODING 21
SWIDTH 545 0
DWIDTH 12 0
BBX 12 22 0 -6
BITMAP
0000
0000
7c00
6600
6600
6600
6600
6600
6600
7c00
0000
0000
01c0
02c0
04c0
08c0
0fe0
0fe0
00c0
00c0
0000
0000
ENDCHAR
STARTCHAR ch-22
ENCODING 22
SWIDTH 545 0
DWIDTH 12 0
BBX 12 22 0 -6
BITMAP
0000
0000
6200
6200
7200
5a00
5a00
4e00
4600
4600
0000
0000
0c60
0cc0
0d80
0f00
0f00
0d80
0cc0
0c60
0000
0000
ENDCHAR
STARTCHAR ch-23
ENCODING 23
SWIDTH 545 0
DWIDTH 12 0
BBX 12 22 0 -6
BITMAP
0000
0000
3e00
6000
6000
7800
1e00
0600
0600
7c00
0000
0000
0620
0620
0720
05a0
05a0
04e0
0460
0460
0000
0000
ENDCHAR
STARTCHAR ch-24
ENCODING 24
SWIDTH 545 0
DWIDTH 12 0
BBX 12 22 0 -6
BITMAP
0000
0000
7e00
6000
6000
7c00
6000
6000
6000
7e00
0000
0000
07c0
0660
0660
07c0
0660
0660
0660
07c0
0000
0000
ENDCHAR
STARTCHAR ch-25
ENCODING 25
SWIDTH 545 0
DWIDTH 12 0
BBX 12 22 0 -6
BITMAP
0000
0000
3e00
6600
6000
6000
6000
6000
6000
3e00
0000
0000
0620
0620
0720
05a0
05a0
04e0
0460
0460
0000
0000
ENDCHAR
STARTCHAR ch-26
ENCODING 26
SWIDTH 545 0
DWIDTH 12 0
BBX 12 22 0 -6
BITMAP
0000
0000
7e00
6000
6000
7c00
6000
6000
6000
7e00
0000
0000
1860
18e0
1ce0
1760
1760
1260
1260
1060
0000
0000
ENDCHAR
STARTCHAR ch-27
ENCODING 27
SWIDTH 545 0
DWIDTH 12 0
BBX 12 22 0 -6
BITMAP
0000
0000
0000
1f80
38c0
3000
3000
1800
0600
0300
0300
0300
0000
0000
0300
0300
0000
0000
0000
0000
0000
0000
ENDCHAR
STARTCHAR ch-28
ENCODING 28
SWIDTH 545 0
DWIDTH 12 0
BBX 12 22 0 -6
BITMAP
0000
0000
7e00
6000
6000
7c00
6000
6000
6000
7e00
0000
0000
03e0
0660
0600
0600
0600
0600
0600
03e0
0000
0000
ENDCHAR
STARTCHAR ch-29
ENCODING 29
SWIDTH 545 0
DWIDTH 12 0
BBX 12 22 0 -6
BITMAP
0000
0000
7e00
6000
6000
7c00
6000
6000
6000
6000
0000
0000
03e0
0600
0600
0780
01e0
0060
0060
07c0
0000
0000
ENDCHAR
STARTCHAR ch-30
ENCODING 30
SWIDTH 545 0
DWIDTH 12 0
BBX 12 22 0 -6
BITMAP
0000
0000
3e00
6600
6000
6000
6600
6600
6600
3e00
0000
0000
03e0
0600
0600
0780
01e0
0060
0060
07c0
0000
0000
ENDCHAR
STARTCHAR ch-31
ENCODING 31
SWIDTH 545 0
DWIDTH 12 0
BBX 12 22 0 -6
BITMAP
0000
0000
7c00
6600
6600
7c00
6400
6600
6600
6600
0000
0000
03e0
0600
0600
0780
01e0
0060
0060
07c0
0000
0000
ENDCHAR
STARTCHAR ch-32
ENCODING 32
SWIDTH 545 0
DWIDTH 12 0
BBX 12 22 0 -6
BITMAP
0000
0000
0000
0000
0000
0000
0000
0000
0000
0000
0000
0000
0000
0000
0000
0000
0000
0000
0000
0000
0000
0000
ENDCHAR
STARTCHAR ch-33
ENCODING 33
SWIDTH 545 0
DWIDTH 12 0
BBX 12 22 0 -6
BITMAP
0000
0000
0000
0600
0600
0600
0600
0600
0600
0600
0600
0200
0000
0000
0600
0600
0000
0000
0000
0000
0000
0000
ENDCHAR
STARTCHAR ch-34
ENCODING 34
SWIDTH 545 0
DWIDTH 12 0
BBX 12 22 0 -6
BITMAP
0000
0000
1980
1980
3300
2200
0000
0000
0000
0000
0000
0000
0000
0000
0000
0000
0000
0000
0000
0000
0000
0000
ENDCHAR
STARTCHAR ch-35
ENCODING 35
SWIDTH 545 0
DWIDTH 12 0
BBX 12 22 0 -6
BITMAP
0000
0000
0000
0cc0
0cc0
0cc0
0880
7fe0
1100
3300
3300
ffc0
2200
6600
6600
6600
0000
0000
0000
0000
0000
0000
ENDCHAR
STARTCHAR ch-36
ENCODING 36
SWIDTH 545 0
DWIDTH 12 0
BBX 12 22 0 -6
BITMAP
0000
0000
0200
0f80
12c0
3200
3200
3a00
1e00
0f00
0780
05c0
04c0
04c0
3480
1f00
0400
0000
0000
0000
0000
0000
ENDCHAR
STARTCHAR ch-37
ENCODING 37
SWIDTH 545 0
DWIDTH 12 0
BBX 12 22 0 -6
BITMAP
0000
0000
0000
7000
d840
8840
8880
8900
da00
75c0
0b60
1220
2220
4220
4360
01c0
0000
0000
0000
0000
0000
0000
ENDCHAR
STARTCHAR ch-38
ENCODING 38
SWIDTH 545 0
DWIDTH 12 0
BBX 12 22 0 -6
BITMAP
0000
0000
0000
3c00
6600
6600
6600
3400
3800
6cc0
ccc0
c680
c300
c380
6ec0
3860
0000
0000
0000
0000
0000
0000
ENDCHAR
STARTCHAR ch-39
ENCODING 39
SWIDTH 545 0
DWIDTH 12 0
BBX 12 22 0 -6
BITMAP
0000
0000
0e00
0e00
0e00
0600
0c00
0000
0000
0000
0000
0000
0000
0000
0000
0000
0000
0000
0000
0000
0000
0000
ENDCHAR
STARTCHAR ch-40
ENCODING 40
SWIDTH 545 0
DWIDTH 12 0
BBX 12 22 0 -6
BITMAP
0000
0000
0180
0600
0c00
1800
1800
3000
3000
3000
3000
3000
3000
1800
1800
0c00
0600
0180
0000
0000
0000
0000
ENDCHAR
STARTCHAR ch-41
ENCODING 41
SWIDTH 545 0
DWIDTH 12 0
BBX 12 22 0 -6
BITMAP
0000
0000
3000
0c00
0600
0300
0300
0180
0180
0180
0180
0180
0180
0300
0300
0600
0c00
3000
0000
0000
0000
0000
ENDCHAR
STARTCHAR ch-42
ENCODING 42
SWIDTH 545 0
DWIDTH 12 0
BBX 12 22 0 -6
BITMAP
0000
0000
0400
0400
2480
3b80
0400
1b00
1100
0000
0000
0000
0000
0000
0000
0000
0000
0000
0000
0000
0000
0000
ENDCHAR
STARTCHAR ch-43
ENCODING 43
SWIDTH 545 0
DWIDTH 12 0
BBX 12 22 0 -6
BITMAP
0000
0000
0000
0000
0000
0000
0400
0400
0400
0400
7fc0
0400
0400
0400
0400
0000
0000
0000
0000
0000
0000
0000
ENDCHAR
STARTCHAR ch-44
ENCODING 44
SWIDTH 545 0
DWIDTH 12 0
BBX 12 22 0 -6
BITMAP
0000
0000
0000
0000
0000
0000
0000
0000
0000
0000
0000
0000
0000
0e00
0e00
0e00
0600
0c00
0000
0000
0000
0000
ENDCHAR
STARTCHAR ch-45
ENCODING 45
SWIDTH 545 0
DWIDTH 12 0
BBX 12 22 0 -6
BITMAP
0000
0000
0000
0000
0000
0000
0000
0000
0000
0000
7fc0
0000
0000
0000
0000
0000
0000
0000
0000
0000
0000
0000
ENDCHAR
STARTCHAR ch-46
ENCODING 46
SWIDTH 545 0
DWIDTH 12 0
BBX 12 22 0 -6
BITMAP
0000
0000
0000
0000
0000
0000
0000
0000
0000
0000
0000
0000
0000
0e00
0e00
0e00
0000
0000
0000
0000
0000
0000
ENDCHAR
STARTCHAR ch-47
ENCODING 47
SWIDTH 545 0
DWIDTH 12 0
BBX 12 22 0 -6
BITMAP
0000
0000
0000
0080
0180
0100
0300
0200
0600
0400
0c00
0800
1800
1000
3000
2000
0000
0000
0000
0000
0000
0000
ENDCHAR
STARTCHAR ch-48
ENCODING 48
SWIDTH 545 0
DWIDTH 12 0
BBX 12 22 0 -6
BITMAP
0000
0000
0000
0f00
1980
1080
30c0
30c0
30c0
30c0
30c0
30c0
30c0
1080
1980
0f00
0000
0000
0000
0000
0000
0000
ENDCHAR
STARTCHAR ch-49
ENCODING 49
SWIDTH 545 0
DWIDTH 12 0
BBX 12 22 0 -6
BITMAP
0000
0000
0000
0300
1f00
0300
0300
0300
0300
0300
0300
0300
0300
0300
0300
0300
0000
0000
0000
0000
0000
0000
ENDCHAR
STARTCHAR ch-50
ENCODING 50
SWIDTH 545 0
DWIDTH 12 0
BBX 12 22 0 -6
BITMAP
0000
0000
0000
1f80
31c0
00c0
00c0
00c0
0180
0300
0600
0c00
1800
3000
3fc0
3fc0
0000
0000
0000
0000
0000
0000
ENDCHAR
STARTCHAR ch-51
ENCODING 51
SWIDTH 545 0
DWIDTH 12 0
BBX 12 22 0 -6
BITMAP
0000
0000
0000
1f80
31c0
00c0
00c0
0180
0f00
0180
00c0
00c0
00c0
00c0
31c0
1f80
0000
0000
0000
0000
0000
0000
ENDCHAR
STARTCHAR ch-52
ENCODING 52
SWIDTH 545 0
DWIDTH 12 0
BBX 12 22 0 -6
BITMAP
0000
0000
0000
0180
0380
0780
0d80
0980
1980
3180
6180
7fe0
7fe0
0180
0180
0180
0000
0000
0000
0000
0000
0000
ENDCHAR
STARTCHAR ch-53
ENCODING 53
SWIDTH 545 0
DWIDTH 12 0
BBX 12 22 0 -6
BITMAP
0000
0000
0000
3fc0
3fc0
2000
2000
2000
3e00
0780
01c0
00c0
00c0
00c0
31c0
1f80
0000
0000
0000
0000
0000
0000
ENDCHAR
STARTCHAR ch-54
ENCODING 54
SWIDTH 545 0
DWIDTH 12 0
BBX 12 22 0 -6
BITMAP
0000
0000
0000
0f00
3980
3000
6000
6000
6f00
7180
60c0
60c0
60c0
70c0
3980
1f00
0000
0000
0000
0000
0000
0000
ENDCHAR
STARTCHAR ch-55
ENCODING 55
SWIDTH 545 0
DWIDTH 12 0
BBX 12 22 0 -6
BITMAP
0000
0000
0000
7fc0
7fc0
0180
0300
0600
0600
0c00
0c00
1800
1800
3000
3000
3000
0000
0000
0000
0000
0000
0000
ENDCHAR
STARTCHAR ch-56
ENCODING 56
SWIDTH 545 0
DWIDTH 12 0
BBX 12 22 0 -6
BITMAP
0000
0000
0000
1f00
3180
60c0
60c0
7080
3d00
1f00
3380
61c0
60c0
60c0
3180
1f00
0000
0000
0000
0000
0000
0000
ENDCHAR
STARTCHAR ch-57
ENCODING 57
SWIDTH 545 0
DWIDTH 12 0
BBX 12 22 0 -6
BITMAP
0000
0000
0000
1f00
3380
61c0
60c0
60c0
60c0
31c0
1ec0
00c0
0080
0180
6300
3e00
0000
0000
0000
0000
0000
0000
ENDCHAR
STARTCHAR ch-58
ENCODING 58
SWIDTH 545 0
DWIDTH 12 0
BBX 12 22 0 -6
BITMAP
0000
0000
0000
0000
0000
0000
0e00
0e00
0000
0000
0000
0000
0000
0000
0e00
0e00
0000
0000
0000
0000
0000
0000
ENDCHAR
STARTCHAR ch-59
ENCODING 59
SWIDTH 545 0
DWIDTH 12 0
BBX 12 22 0 -6
BITMAP
0000
0000
0000
0000
0000
0000
0e00
0e00
0000
0000
0000
0000
0000
0000
0e00
0e00
0600
0c00
0000
0000
0000
0000
ENDCHAR
STARTCHAR ch-60
ENCODING 60
SWIDTH 545 0
DWIDTH 12 0
BBX 12 22 0 -6
BITMAP
0000
0000
0000
0000
0000
0000
0060
01c0
0700
1c00
7000
1c00
0700
01c0
0060
0000
0000
0000
0000
0000
0000
0000
ENDCHAR
STARTCHAR ch-61
ENCODING 61
SWIDTH 545 0
DWIDTH 12 0
BBX 12 22 0 -6
BITMAP
0000
0000
0000
0000
0000
0000
0000
0000
0000
7fe0
0000
0000
7fe0
0000
0000
0000
0000
0000
0000
0000
0000
0000
ENDCHAR
STARTCHAR ch-62
ENCODING 62
SWIDTH 545 0
DWIDTH 12 0
BBX 12 22 0 -6
BITMAP
0000
0000
0000
0000
0000
0000
6000
3800
0e00
0380
00e0
0380
0e00
3800
6000
0000
0000
0000
0000
0000
0000
0000
ENDCHAR
STARTCHAR ch-63
ENCODING 63
SWIDTH 545 0
DWIDTH 12 0
BBX 12 22 0 -6
BITMAP
0000
0000
0000
1f80
31c0
00c0
00c0
0180
0600
0c00
0c00
0c00
0000
0000
0c00
0c00
0000
0000
0000
0000
0000
0000
ENDCHAR
STARTCHAR ch-64
ENCODING 64
SWIDTH 545 0
DWIDTH 12 0
BBX 12 22 0 -6
BITMAP
0000
0000
0000
0780
18e0
3020
67b0
4990
9190
b310
b730
ba60
9bc0
4000
6000
1f80
0000
0000
0000
0000
0000
0000
ENDCHAR
STARTCHAR ch-65
ENCODING 65
SWIDTH 545 0
DWIDTH 12 0
BBX 12 22 0 -6
BITMAP
0000
0000
0000
0600
0600
0f00
0b00
0980
1980
1180
10c0
3fc0
20c0
6060
6060
6060
0000
0000
0000
0000
0000
0000
ENDCHAR
STARTCHAR ch-66
ENCODING 66
SWIDTH 545 0
DWIDTH 12 0
BBX 12 22 0 -6
BITMAP
0000
0000
0000
3f80
31c0
30c0
30c0
30c0
3180
3f00
3180
30c0
30c0
30c0
31c0
3f80
0000
0000
0000
0000
0000
0000
ENDCHAR
STARTCHAR ch-67
ENCODING 67
SWIDTH 545 0
DWIDTH 12 0
BBX 12 22 0 -6
BITMAP
0000
0000
0000
0f80
18c0
3000
3000
6000
6000
6000
6000
6000
3000
3000
18c0
0f80
0000
0000
0000
0000
0000
0000
ENDCHAR
STARTCHAR ch-68
ENCODING 68
SWIDTH 545 0
DWIDTH 12 0
BBX 12 22 0 -6
BITMAP
0000
0000
0000
7f00
61c0
60c0
6060
6060
6060
6060
6060
6060
60c0
60c0
6380
7e00
0000
0000
0000
0000
0000
0000
ENDCHAR
STARTCHAR ch-69
ENCODING 69
SWIDTH 545 0
DWIDTH 12 0
BBX 12 22 0 -6
BITMAP
0000
0000
0000
3fc0
3000
3000
3000
3000
3000
3f80
3000
3000
3000
3000
3000
3fc0
0000
0000
0000
0000
0000
0000
ENDCHAR
STARTCHAR ch-70
ENCODING 70
SWIDTH 545 0
DWIDTH 12 0
BBX 12 22 0 -6
BITMAP
0000
0000
0000
3fc0
3000
3000
3000
3000
3000
3f80
3000
3000
3000
3000
3000
3000
0000
0000
0000
0000
0000
0000
ENDCHAR
STARTCHAR ch-71
ENCODING 71
SWIDTH 545 0
DWIDTH 12 0
BBX 12 22 0 -6
BITMAP
0000
0000
0000
0f80
18c0
3000
3000
6000
6000
6000
60c0
60c0
30c0
30c0
18c0
0fc0
0000
0000
0000
0000
0000
0000
ENDCHAR
STARTCHAR ch-72
ENCODING 72
SWIDTH 545 0
DWIDTH 12 0
BBX 12 22 0 -6
BITMAP
0000
0000
0000
6060
6060
6060
6060
6060
6060
7fe0
6060
6060
6060
6060
6060
6060
0000
0000
0000
0000
0000
0000
ENDCHAR
STARTCHAR ch-73
ENCODING 73
SWIDTH 545 0
DWIDTH 12 0
BBX 12 22 0 -6
BITMAP
0000
0000
0000
3fc0
0600
0600
0600
0600
0600
0600
0600
0600
0600
0600
0600
3fc0
0000
0000
0000
0000
0000
0000
ENDCHAR
STARTCHAR ch-74
ENCODING 74
SWIDTH 545 0
DWIDTH 12 0
BBX 12 22 0 -6
BITMAP
0000
0000
0000
1f80
0180
0180
0180
0180
0180
0180
0180
0180
0180
2180
2300
3c00
0000
0000
0000
0000
0000
0000
ENDCHAR
STARTCHAR ch-75
ENCODING 75
SWIDTH 545 0
DWIDTH 12 0
BBX 12 22 0 -6
BITMAP
0000
0000
0000
60c0
6180
6300
6600
6c00
7800
7800
6c00
6600
6300
6180
60c0
6060
0000
0000
0000
0000
0000
0000
ENDCHAR
STARTCHAR ch-76
ENCODING 76
SWIDTH 545 0
DWIDTH 12 0
BBX 12 22 0 -6
BITMAP
0000
0000
0000
6000
6000
6000
6000
6000
6000
6000
6000
6000
6000
6000
6000
7fc0
0000
0000
0000
0000
0000
0000
ENDCHAR
STARTCHAR ch-77
ENCODING 77
SWIDTH 545 0
DWIDTH 12 0
BBX 12 22 0 -6
BITMAP
0000
0000
0000
7060
70e0
70e0
70e0
5960
5960
5960
5960
4e60
4e60
4460
4460
4060
0000
0000
0000
0000
0000
0000
ENDCHAR
STARTCHAR ch-78
ENCODING 78
SWIDTH 545 0
DWIDTH 12 0
BBX 12 22 0 -6
BITMAP
0000
0000
0000
6020
7020
7020
5820
4c20
4c20
4620
4320
4320
41a0
40e0
40e0
4060
0000
0000
0000
0000
0000
0000
ENDCHAR
STARTCHAR ch-79
ENCODING 79
SWIDTH 545 0
DWIDTH 12 0
BBX 12 22 0 -6
BITMAP
0000
0000
0000
0f00
1980
30c0
30c0
6060
6060
6060
6060
6060
30c0
30c0
1980
0f00
0000
0000
0000
0000
0000
0000
ENDCHAR
STARTCHAR ch-80
ENCODING 80
SWIDTH 545 0
DWIDTH 12 0
BBX 12 22 0 -6
BITMAP
0000
0000
0000
7f80
61c0
60c0
60c0
60c0
60c0
6180
7e00
6000
6000
6000
6000
6000
0000
0000
0000
0000
0000
0000
ENDCHAR
STARTCHAR ch-81
ENCODING 81
SWIDTH 545 0
DWIDTH 12 0
BBX 12 22 0 -6
BITMAP
0000
0000
0000
0f00
1980
30c0
30c0
6060
6060
6060
6060
6060
30c0
30c0
1980
0f00
0300
01c0
00e0
0000
0000
0000
ENDCHAR
STARTCHAR ch-82
ENCODING 82
SWIDTH 545 0
DWIDTH 12 0
BBX 12 22 0 -6
BITMAP
0000
0000
0000
7f00
6380
6180
6180
6180
6300
7c00
6600
6300
6300
6180
60c0
60c0
0000
0000
0000
0000
0000
0000
ENDCHAR
STARTCHAR ch-83
ENCODING 83
SWIDTH 545 0
DWIDTH 12 0
BBX 12 22 0 -6
BITMAP
0000
0000
0000
0f80
18c0
3000
3000
3800
1e00
0780
01c0
00c0
00c0
00c0
3180
1f00
0000
0000
0000
0000
0000
0000
ENDCHAR
STARTCHAR ch-84
ENCODING 84
SWIDTH 545 0
DWIDTH 12 0
BBX 12 22 0 -6
BITMAP
0000
0000
0000
7fe0
0600
0600
0600
0600
0600
0600
0600
0600
0600
0600
0600
0600
0000
0000
0000
0000
0000
0000
ENDCHAR
STARTCHAR ch-85
ENCODING 85
SWIDTH 545 0
DWIDTH 12 0
BBX 12 22 0 -6
BITMAP
0000
0000
0000
6060
6060
6060
6060
6060
6060
6060
6060
6060
6060
30c0
39c0
0f00
0000
0000
0000
0000
0000
0000
ENDCHAR
STARTCHAR ch-86
ENCODING 86
SWIDTH 545 0
DWIDTH 12 0
BBX 12 22 0 -6
BITMAP
0000
0000
0000
6060
6060
6060
3040
3040
30c0
1880
1880
1880
0d00
0d00
0600
0600
0000
0000
0000
0000
0000
0000
ENDCHAR
STARTCHAR ch-87
ENCODING 87
SWIDTH 545 0
DWIDTH 12 0
BBX 12 22 0 -6
BITMAP
0000
0000
0000
c020
c020
c620
c620
6660
6740
6f40
6b40
7bc0
3b80
3180
3180
3180
0000
0000
0000
0000
0000
0000
ENDCHAR
STARTCHAR ch-88
ENCODING 88
SWIDTH 545 0
DWIDTH 12 0
BBX 12 22 0 -6
BITMAP
0000
0000
0000
6060
6060
30c0
30c0
1980
0f00
0600
0700
1980
30c0
30c0
6060
6060
0000
0000
0000
0000
0000
0000
ENDCHAR
STARTCHAR ch-89
ENCODING 89
SWIDTH 545 0
DWIDTH 12 0
BBX 12 22 0 -6
BITMAP
0000
0000
0000
6060
6060
30c0
1880
1980
0d00
0600
0600
0600
0600
0600
0600
0600
0000
0000
0000
0000
0000
0000
ENDCHAR
STARTCHAR ch-90
ENCODING 90
SWIDTH 545 0
DWIDTH 12 0
BBX 12 22 0 -6
BITMAP
0000
0000
0000
3fe0
0060
0060
00c0
0180
0300
0600
0c00
1800
3000
6000
6000
7fe0
0000
0000
0000
0000
0000
0000
ENDCHAR
STARTCHAR ch-91
ENCODING 91
SWIDTH 545 0
DWIDTH 12 0
BBX 12 22 0 -6
BITMAP
0000
0000
1f80
1800
1800
1800
1800
1800
1800
1800
1800
1800
1800
1800
1800
1800
1800
1f80
0000
0000
0000
0000
ENDCHAR
STARTCHAR ch-92
ENCODING 92
SWIDTH 545 0
DWIDTH 12 0
BBX 12 22 0 -6
BITMAP
0000
0000
0000
2000
3000
1000
1800
0800
0c00
0400
0600
0200
0300
0100
0180
0080
0000
0000
0000
0000
0000
0000
ENDCHAR
STARTCHAR ch-93
ENCODING 93
SWIDTH 545 0
DWIDTH 12 0
BBX 12 22 0 -6
BITMAP
0000
0000
1f80
0180
0180
0180
0180
0180
0180
0180
0180
0180
0180
0180
0180
0180
0180
1f80
0000
0000
0000
0000
ENDCHAR
STARTCHAR ch-94
ENCODING 94
SWIDTH 545 0
DWIDTH 12 0
BBX 12 22 0 -6
BITMAP
0000
0000
0000
0000
0600
0f00
0900
1980
1080
30c0
30c0
6060
6060
6060
0000
0000
0000
0000
0000
0000
0000
0000
ENDCHAR
STARTCHAR ch-95
ENCODING 95
SWIDTH 545 0
DWIDTH 12 0
BBX 12 22 0 -6
BITMAP
0000
0000
0000
0000
0000
0000
0000
0000
0000
0000
0000
0000
0000
0000
0000
0000
0000
0000
7fe0
0000
0000
0000
ENDCHAR
STARTCHAR ch-96
ENCODING 96
SWIDTH 545 0
DWIDTH 12 0
BBX 12 22 0 -6
BITMAP
0000
0000
0600
0c00
0e00
0e00
0e00
0000
0000
0000
0000
0000
0000
0000
0000
0000
0000
0000
0000
0000
0000
0000
ENDCHAR
STARTCHAR ch-97
ENCODING 97
SWIDTH 545 0
DWIDTH 12 0
BBX 12 22 0 -6
BITMAP
0000
0000
0000
0000
0000
0000
1f80
31c0
00c0
00c0
1fc0
30c0
60c0
60c0
71c0
3e60
0000
0000
0000
0000
0000
0000
ENDCHAR
STARTCHAR ch-98
ENCODING 98
SWIDTH 545 0
DWIDTH 12 0
BBX 12 22 0 -6
BITMAP
0000
0000
6000
6000
6000
6000
6e00
7380
6180
60c0
60c0
60c0
60c0
6180
7380
6e00
0000
0000
0000
0000
0000
0000
ENDCHAR
STARTCHAR ch-99
ENCODING 99
SWIDTH 545 0
DWIDTH 12 0
BBX 12 22 0 -6
BITMAP
0000
0000
0000
0000
0000
0000
0f80
38c0
3000
6000
6000
6000
6000
3000
38c0
0f80
0000
0000
0000
0000
0000
0000
ENDCHAR
STARTCHAR ch-100
ENCODING 100
SWIDTH 545 0
DWIDTH 12 0
BBX 12 22 0 -6
BITMAP
0000
0000
00c0
00c0
00c0
00c0
0ec0
39c0
30c0
60c0
60c0
60c0
60c0
30c0
39c0
0ec0
0000
0000
0000
0000
0000
0000
ENDCHAR
STARTCHAR ch-101
ENCODING 101
SWIDTH 545 0
DWIDTH 12 0
BBX 12 22 0 -6
BITMAP
0000
0000
0000
0000
0000
0000
1f00
3180
60c0
60c0
7fc0
6000
6000
7000
38c0
1f80
0000
0000
0000
0000
0000
0000
ENDCHAR
STARTCHAR ch-102
ENCODING 102
SWIDTH 545 0
DWIDTH 12 0
BBX 12 22 0 -6
BITMAP
0000
0000
03c0
0600
0c00
0c00
0c00
7fc0
0c00
0c00
0c00
0c00
0c00
0c00
0c00
0c00
0000
0000
0000
0000
0000
0000
ENDCHAR
STARTCHAR ch-103
ENCODING 103
SWIDTH 545 0
DWIDTH 12 0
BBX 12 22 0 -6
BITMAP
0000
0000
0000
0000
0000
0000
0ec0
39c0
30c0
60c0
60c0
60c0
70c0
39c0
0ec0
00c0
00c0
00c0
3180
1f00
0000
0000
ENDCHAR
STARTCHAR ch-104
ENCODING 104
SWIDTH 545 0
DWIDTH 12 0
BBX 12 22 0 -6
BITMAP
0000
0000
3000
3000
3000
3000
3780
39c0
30c0
30c0
30c0
30c0
30c0
30c0
30c0
30c0
0000
0000
0000
0000
0000
0000
ENDCHAR
STARTCHAR ch-105
ENCODING 105
SWIDTH 545 0
DWIDTH 12 0
BBX 12 22 0 -6
BITMAP
0000
0000
0300
0300
0000
0000
1f00
0300
0300
0300
0300
0300
0300
0300
0300
0300
0000
0000
0000
0000
0000
0000
ENDCHAR
STARTCHAR ch-106
ENCODING 106
SWIDTH 545 0
DWIDTH 12 0
BBX 12 22 0 -6
BITMAP
0000
0000
0180
0180
0000
0000
0f80
0180
0180
0180
0180
0180
0180
0180
0180
0180
0180
0300
0700
3c00
0000
0000
ENDCHAR
STARTCHAR ch-107
ENCODING 107
SWIDTH 545 0
DWIDTH 12 0
BBX 12 22 0 -6
BITMAP
0000
0000
6000
6000
6000
6000
6180
6300
6600
6c00
7800
6c00
6600
6300
6180
60c0
0000
0000
0000
0000
0000
0000
ENDCHAR
STARTCHAR ch-108
ENCODING 108
SWIDTH 545 0
DWIDTH 12 0
BBX 12 22 0 -6
BITMAP
0000
0000
1f00
0300
0300
0300
0300
0300
0300
0300
0300
0300
0300
0300
0300
0300
0000
0000
0000
0000
0000
0000
ENDCHAR
STARTCHAR ch-109
ENCODING 109
SWIDTH 545 0
DWIDTH 12 0
BBX 12 22 0 -6
BITMAP
0000
0000
0000
0000
0000
0000
6ec0
7760
6660
6660
6660
6660
6660
6660
6660
6660
0000
0000
0000
0000
0000
0000
ENDCHAR
STARTCHAR ch-110
ENCODING 110
SWIDTH 545 0
DWIDTH 12 0
BBX 12 22 0 -6
BITMAP
0000
0000
0000
0000
0000
0000
3780
39c0
30c0
30c0
30c0
30c0
30c0
30c0
30c0
30c0
0000
0000
0000
0000
0000
0000
ENDCHAR
STARTCHAR ch-111
ENCODING 111
SWIDTH 545 0
DWIDTH 12 0
BBX 12 22 0 -6
BITMAP
0000
0000
0000
0000
0000
0000
0f80
39c0
30c0
6060
6060
6060
6060
30c0
39c0
0f00
0000
0000
0000
0000
0000
0000
ENDCHAR
STARTCHAR ch-112
ENCODING 112
SWIDTH 545 0
DWIDTH 12 0
BBX 12 22 0 -6
BITMAP
0000
0000
0000
0000
0000
0000
6e00
7380
6180
60c0
60c0
60c0
60c0
6180
7380
6e00
6000
6000
6000
6000
0000
0000
ENDCHAR
STARTCHAR ch-113
ENCODING 113
SWIDTH 545 0
DWIDTH 12 0
BBX 12 22 0 -6
BITMAP
0000
0000
0000
0000
0000
0000
0ec0
39c0
30c0
60c0
60c0
60c0
60c0
30c0
39c0
0ec0
00c0
00c0
00c0
00c0
0000
0000
ENDCHAR
STARTCHAR ch-114
ENCODING 114
SWIDTH 545 0
DWIDTH 12 0
BBX 12 22 0 -6
BITMAP
0000
0000
0000
0000
0000
0000
3380
3780
3880
3080
3000
3000
3000
3000
3000
3000
0000
0000
0000
0000
0000
0000
ENDCHAR
STARTCHAR ch-115
ENCODING 115
SWIDTH 545 0
DWIDTH 12 0
BBX 12 22 0 -6
BITMAP
0000
0000
0000
0000
0000
0000
1f80
30c0
3000
3800
1e00
0780
01c0
00c0
30c0
1f80
0000
0000
0000
0000
0000
0000
ENDCHAR
STARTCHAR ch-116
ENCODING 116
SWIDTH 545 0
DWIDTH 12 0
BBX 12 22 0 -6
BITMAP
0000
0000
0000
0000
0c00
0c00
0c00
7fc0
0c00
0c00
0c00
0c00
0c00
0c00
0c00
07c0
0000
0000
0000
0000
0000
0000
ENDCHAR
STARTCHAR ch-117
ENCODING 117
SWIDTH 545 0
DWIDTH 12 0
BBX 12 22 0 -6
BITMAP
0000
0000
0000
0000
0000
0000
30c0
30c0
30c0
30c0
30c0
30c0
30c0
30c0
39c0
1ec0
0000
0000
0000
0000
0000
0000
ENDCHAR
STARTCHAR ch-118
ENCODING 118
SWIDTH 545 0
DWIDTH 12 0
BBX 12 22 0 -6
BITMAP
0000
0000
0000
0000
0000
0000
30c0
30c0
30c0
1880
1980
1980
0d00
0d00
0600
0600
0000
0000
0000
0000
0000
0000
ENDCHAR
STARTCHAR ch-119
ENCODING 119
SWIDTH 545 0
DWIDTH 12 0
BBX 12 22 0 -6
BITMAP
0000
0000
0000
0000
0000
0000
6060
6660
6660
6640
3740
3740
3bc0
1b80
1980
1980
0000
0000
0000
0000
0000
0000
ENDCHAR
STARTCHAR ch-120
ENCODING 120
SWIDTH 545 0
DWIDTH 12 0
BBX 12 22 0 -6
BITMAP
0000
0000
0000
0000
0000
0000
30c0
30c0
1980
0d00
0e00
0700
0b00
1980
30c0
30c0
0000
0000
0000
0000
0000
0000
ENDCHAR
STARTCHAR ch-121
ENCODING 121
SWIDTH 545 0
DWIDTH 12 0
BBX 12 22 0 -6
BITMAP
0000
0000
0000
0000
0000
0000
30c0
30c0
30c0
1880
1980
1980
0d00
0f00
0600
0600
0400
0c00
1800
1800
0000
0000
ENDCHAR
STARTCHAR ch-122
ENCODING 122
SWIDTH 545 0
DWIDTH 12 0
BBX 12 22 0 -6
BITMAP
0000
0000
0000
0000
0000
0000
3fc0
00c0
01c0
0380
0700
0e00
1c00
3800
3000
3fc0
0000
0000
0000
0000
0000
0000
ENDCHAR
STARTCHAR ch-123
ENCODING 123
SWIDTH 545 0
DWIDTH 12 0
BBX 12 22 0 -6
BITMAP
0000
0000
07c0
0c00
0c00
0400
0600
0200
0200
3c00
0200
0200
0600
0400
0c00
0c00
0c00
07c0
0000
0000
0000
0000
ENDCHAR
STARTCHAR ch-124
ENCODING 124
SWIDTH 545 0
DWIDTH 12 0
BBX 12 22 0 -6
BITMAP
0000
0000
0000
0600
0600
0600
0600
0600
0600
0600
0600
0600
0600
0600
0600
0600
0600
0600
0000
0000
0000
0000
ENDCHAR
STARTCHAR ch-125
ENCODING 125
SWIDTH 545 0
DWIDTH 12 0
BBX 12 22 0 -6
BITMAP
0000
0000
3e00
0300
0300
0200
0600
0400
0400
03c0
0400
0400
0600
0200
0300
0300
0300
3e00
0000
0000
0000
0000
ENDCHAR
STARTCHAR ch-126
ENCODING 126
SWIDTH 545 0
DWIDTH 12 0
BBX 12 22 0 -6
BITMAP
0000
0000
0000
0000
0000
0000
0000
0000
0000
3840
4e40
4380
0000
0000
0000
0000
0000
0000
0000
0000
0000
0000
ENDCHAR
STARTCHAR ch-127
ENCODING 127
SWIDTH 545 0
DWIDTH 12 0
BBX 12 22 0 -6
BITMAP
0000
0000
0000
aaa0
5540
aaa0
5540
aaa0
5540
aaa0
5540
aaa0
5540
aaa0
5540
aaa0
5540
aaa0
0000
0000
0000
0000
ENDCHAR
ENDFONT
